<?xml version="1.0" encoding="UTF-8"?>
<!DOCTYPE svg PUBLIC "-//W3C//DTD SVG 1.1//EN" "http://www.w3.org/Graphics/SVG/1.1/DTD/svg11.dtd">
<!-- Creator: CorelDRAW X7 -->
<svg xmlns="http://www.w3.org/2000/svg" xml:space="preserve" width="762mm" height="508mm" version="1.1" style="shape-rendering:geometricPrecision; text-rendering:geometricPrecision; image-rendering:optimizeQuality; fill-rule:evenodd; clip-rule:evenodd"
viewBox="0 0 76200 50800"
 xmlns:xlink="http://www.w3.org/1999/xlink">
 <defs>
  <style type="text/css">
    .fil2 {fill:#007DC4}
    .fil0 {fill:#007DC4;fill-rule:nonzero}
    .fil3 {fill:url(#id0)}
    .fil1 {fill:url(#id1)}
  </style>
  <linearGradient id="id0" gradientUnits="userSpaceOnUse" x1="43003.1" y1="15171.4" x2="47366.6" y2="18182.9">
   <stop offset="0" style="stop-opacity:1; stop-color:#007DC4"/>
   <stop offset="1" style="stop-opacity:1; stop-color:#233D5C"/>
  </linearGradient>
  <linearGradient id="id1" gradientUnits="userSpaceOnUse" xlink:href="#id0" x1="28833.4" y1="15171.4" x2="33196.9" y2="18182.9">
  </linearGradient>
 </defs>
 <g id="Layer_x0020_1">
  <metadata id="CorelCorpID_0Corel-Layer"/>
  <g id="_2768786033920">
   <path class="fil0" d="M14532 38424l-2388 0 0 -5374 2388 0c879,102 1484,587 1815,1458 165,405 247,817 247,1231 0,416 -82,825 -247,1229 -331,871 -936,1356 -1815,1456zm602 -2734c-3,-1011 -379,-1530 -1127,-1557l-287 0 0 3185 287 8c753,-80 1129,-625 1127,-1636zm7431 -4c0,830 -269,1503 -808,2017 -538,513 -1221,770 -2047,770 -825,0 -1504,-257 -2038,-770 -533,-514 -799,-1187 -799,-2017 0,-831 265,-1504 796,-2020 530,-517 1215,-775 2052,-775 837,0 1521,258 2049,775 530,516 795,1189 795,2020zm-1887 -1000c-238,-262 -557,-394 -956,-394 -398,0 -717,133 -959,397 -242,263 -361,596 -361,999 0,402 119,733 361,993 242,261 561,390 958,390 397,0 715,-131 955,-394 241,-262 360,-594 360,-995 0,-401 -119,-732 -358,-996zm5530 1454l716 978c195,231 287,441 280,628 -8,188 -103,355 -285,503 -182,149 -374,220 -575,213 -202,-6 -407,-130 -617,-372l-895 -1225 0 -1505 103 0c446,0 669,-205 669,-614 0,-408 -223,-613 -669,-613l-454 0 0 839 0 388 0 1026 0 784 0 563c0,460 -263,691 -788,691l-788 0 0 -5374 788 0 1783 0c440,0 807,170 1099,508 292,339 438,701 438,1089 0,693 -268,1190 -805,1493zm5539 828c0,506 -216,883 -647,1129 -432,244 -922,368 -1471,368 -549,0 -1040,-124 -1471,-368 -432,-246 -647,-623 -647,-1129l0 -3918 789 0c524,0 788,231 788,693l0 2994c0,303 180,453 541,453 361,0 542,-150 542,-453l0 -3687 788 0c524,0 788,231 788,693l0 3225zm3646 -1521l0 -1704c0,-462 263,-693 788,-693l788 0 0 4683c0,460 -262,691 -788,691 -292,0 -523,-100 -693,-301l-1767 -2103 0 1713c0,460 -263,691 -788,691l-788 0 0 -5370 788 -4c337,-3 578,106 725,328l1735 2069zm6414 -318l0 669c0,445 239,668 716,668l247 0 0 430c-95,106 -332,163 -709,167 -377,5 -680,-121 -907,-382 -228,-260 -342,-591 -342,-993 0,-403 102,-737 308,-1003 206,-267 522,-398 949,-393 428,5 768,73 1022,201 252,129 447,193 581,193 133,0 271,-80 409,-240 140,-161 207,-343 201,-548 -5,-204 -202,-423 -591,-656 -388,-234 -955,-351 -1700,-351 -744,0 -1382,258 -1912,775 -531,516 -796,1189 -796,2020 0,830 267,1503 799,2017 534,513 1200,770 1999,770 799,0 1374,-113 1724,-335 351,-223 525,-499 525,-828l0 -2181 -2523 0zm6226 1011l716 978c194,231 287,441 280,628 -8,188 -103,355 -285,503 -183,149 -374,220 -575,213 -203,-6 -408,-130 -617,-372l-896 -1225 0 -1505 104 0c445,0 668,-205 668,-614 0,-408 -223,-613 -668,-613l-454 0 0 839 0 388 0 1026 0 784 0 563c0,460 -264,691 -788,691l-789 0 0 -5374 789 0 1782 0c441,0 808,170 1100,508 292,339 437,701 437,1089 0,693 -267,1190 -804,1493zm6935 -454c0,830 -269,1503 -808,2017 -538,513 -1220,770 -2046,770 -825,0 -1505,-257 -2039,-770 -532,-514 -799,-1187 -799,-2017 0,-831 265,-1504 797,-2020 529,-517 1214,-775 2051,-775 837,0 1521,258 2050,775 529,516 794,1189 794,2020zm-1887 -1000c-238,-262 -557,-394 -955,-394 -398,0 -718,133 -960,397 -241,263 -361,596 -361,999 0,402 120,733 361,993 242,261 562,390 958,390 397,0 715,-131 956,-394 240,-262 360,-594 360,-995 0,-401 -120,-732 -359,-996zm6463 2282c0,506 -216,883 -647,1129 -432,244 -923,368 -1472,368 -549,0 -1039,-124 -1470,-368 -432,-246 -647,-623 -647,-1129l0 -3918 788 0c525,0 788,231 788,693l0 2994c0,303 181,453 541,453 362,0 542,-150 542,-453l0 -3687 789 0c524,0 788,231 788,693l0 3225zm2777 -335c508,0 920,-179 1240,-536 317,-359 483,-779 494,-1261 12,-481 -130,-897 -429,-1247 -299,-349 -670,-523 -1113,-523l-2571 0 0 5358 788 0c525,0 788,-231 788,-691l0 -563 0 -537 0 -1273 0 -388 0 -839 454 0c446,0 669,205 669,613 0,409 -223,614 -669,614l-103 0 0 1273 452 0z"/>
   <path class="fil1" d="M24545 16056c-1,445 226,711 779,971l9604 4001 0 0c648,-259 1308,-555 1767,-995 351,-336 615,-741 791,-1207 -31,-1122 -1133,-1634 -2887,-2477l-9274 -3918c-685,-257 -813,-26 -774,550l0 1527 -6 1548z"/>
   <path class="fil2" d="M24551 18678c-31,-509 220,-795 679,-598l1441 599 2165 967c337,183 531,356 568,851l0 537 0 652c0,165 16,349 -113,478 -124,123 -258,44 -394,-6l-478 -175 3 1732 5640 -2345c866,-359 1962,-694 2633,-1337 351,-336 615,-741 791,-1207l-5 3558c34,1720 -970,2610 -2384,3171l-5453 2373c-820,357 -1637,776 -2527,916 -1231,194 -2006,-239 -2362,-1245 -253,-718 -204,-1388 -204,-2132l0 -6789z"/>
   <path class="fil3" d="M51655 16056c1,445 -226,711 -779,971l-9604 4001 0 0c-648,-259 -1307,-555 -1767,-995 -351,-336 -615,-741 -791,-1207 31,-1122 1133,-1634 2887,-2477l9274 -3918c685,-257 813,-26 774,550l0 1527 6 1548z"/>
   <path class="fil2" d="M51649 18678c31,-509 -220,-795 -679,-598l-1441 599 -2165 967c-337,183 -531,356 -567,851l-1 537 0 652c0,165 -16,349 113,478 124,123 258,44 394,-6l478 -175 -3 1732 -5640 -2345c-866,-359 -1962,-694 -2633,-1337 -351,-336 -615,-741 -791,-1207l5 3558c-34,1720 970,2610 2384,3171l5453 2373c820,357 1637,776 2527,916 1231,194 2006,-239 2362,-1245 253,-718 204,-1388 204,-2132l0 -6789z"/>
  </g>
 </g>
</svg>
